<svg id="cart" xmlns="http://www.w3.org/2000/svg" width="31.417" height="26.999" viewBox="0 0 31.417 26.999">
  <g id="Group_5" data-name="Group 5">
    <g id="Group_4" data-name="Group 4" transform="translate(0 0)">
      <path id="Path_4" data-name="Path 4" d="M30.726,44.565l-19.6-5.033A.92.92,0,0,0,10,40.628L13.011,53.8h-1.18L8.226,38.039a.92.92,0,0,0-.711-.7L1.107,36.019a.92.92,0,1,0-.373,1.8l5.829,1.2,3.637,15.9a.92.92,0,0,0,.9.715H29.208a.923.923,0,0,0,.912-.793l1.289-9.268A.919.919,0,0,0,30.726,44.565ZM28.407,53.8H14.9l-2.77-12.115,17.343,4.453Z" transform="translate(0 -36)" fill="#fff"/>
    </g>
  </g>
  <g id="Group_7" data-name="Group 7" transform="translate(16.67 9.467)">
    <g id="Group_6" data-name="Group 6" transform="translate(0 0)">
      <path id="Path_5" data-name="Path 5" d="M272.582,190.279a.92.92,0,0,0-.92.92v4.046a.92.92,0,0,0,1.841,0V191.2A.92.92,0,0,0,272.582,190.279Z" transform="translate(-271.662 -190.279)" fill="#fff"/>
    </g>
  </g>
  <g id="Group_9" data-name="Group 9" transform="translate(24.548 11.674)">
    <g id="Group_8" data-name="Group 8">
      <path id="Path_6" data-name="Path 6" d="M400.971,226.243a.92.92,0,0,0-.92.92V229a.92.92,0,0,0,1.841,0v-1.839A.92.92,0,0,0,400.971,226.243Z" transform="translate(-400.051 -226.243)" fill="#fff"/>
    </g>
  </g>
  <g id="Group_11" data-name="Group 11" transform="translate(12.483 20.869)">
    <g id="Group_10" data-name="Group 10">
      <path id="Path_7" data-name="Path 7" d="M206.494,376.1a3.065,3.065,0,1,0,3.068,3.065A3.07,3.07,0,0,0,206.494,376.1Zm0,4.291a1.226,1.226,0,1,1,1.227-1.226A1.228,1.228,0,0,1,206.494,380.388Z" transform="translate(-203.426 -376.097)" fill="#fff"/>
    </g>
  </g>
  <g id="Group_13" data-name="Group 13" transform="translate(21.687 20.869)">
    <g id="Group_12" data-name="Group 12">
      <path id="Path_8" data-name="Path 8" d="M356.493,376.1a3.065,3.065,0,1,0,3.068,3.065A3.07,3.07,0,0,0,356.493,376.1Zm0,4.291a1.226,1.226,0,1,1,1.227-1.226A1.228,1.228,0,0,1,356.493,380.388Z" transform="translate(-353.425 -376.097)" fill="#fff"/>
    </g>
  </g>
  <g id="Group_15" data-name="Group 15" transform="translate(20.609 10.693)">
    <g id="Group_14" data-name="Group 14" transform="translate(0 0)">
      <path id="Path_9" data-name="Path 9" d="M336.776,210.259a.92.92,0,0,0-.92.92V214a.92.92,0,0,0,1.841,0v-2.82A.92.92,0,0,0,336.776,210.259Z" transform="translate(-335.856 -210.259)" fill="#fff"/>
    </g>
  </g>
</svg>
